<mxfile host="app.diagrams.net" modified="2023-09-14T10:16:36.370Z" agent="Mozilla/5.0 (X11; Linux x86_64) AppleWebKit/537.36 (KHTML, like Gecko) Chrome/116.0.0.0 Safari/537.36" version="21.6.6" etag="tHruZZ-l7ApFaR-fx72n" type="github">
  <diagram name="Page-1" id="UlZ_QUFhI7QPhf-T-bSU">
    <mxGraphModel>
      <root>
        <mxCell id="0" />
        <mxCell id="1" parent="0" />
      </root>
    </mxGraphModel>
  </diagram>
</mxfile>
